<svg xmlns="http://www.w3.org/2000/svg" xmlns:xlink="http://www.w3.org/1999/xlink" width="525" height="374.36722" viewBox="0 0 525 374.36722">
  <defs>
    <clipPath id="a">
      <circle cx="268.29999" cy="142.41168" r="20.40002" fill="none"/>
    </clipPath>
  </defs>
  <title>Asset 1</title>
  <g>
    <g opacity="0.07">
      <path d="M467.2,141.91168c6.6,12.1,16.3,23.5,17.1,37.1,1.3,21.9-20,38.3-28.7,58.6-10.7,24.9-1.7,54.2-11.2,79.5-6.9,18.3-23.7,33-43.5,37.8-14.8,3.6-30.4,2-45.7,2.1-43.4.4-86.7,15.4-129.6,8.6-21.2-3.4-41.2-12-62.4-14.7-25.5-3.3-55.2.7-73.4-16.6-25.5-24.2-6.6-68.7-25.7-97.7-6.2-9.4-16.1-16.7-19.4-27.2-3.9-12.4,2.4-25.5,10.2-36.1,7.8-10.5,17.5-20.2,21.7-32.5,3.8-11.1,1.5-23.2-3.2-34-7.2-16.6,12.9-54.6,52.9-51.7,18.3,1.3,26.6-19.9,46.7-25.8,23-6.7,51.9-1.3,68.8,4.3,17.2,5.7,38.5,8.7,48.4-5.9,13.9-20.7,55.5-23.9,74.2,9.7,6.8,12.2,12.9,21.8,27.4,20.8C470.4,53.11169,457.3,124.01172,467.2,141.91168Zm-214.3-113.3c0,2.8,0,7.6,12.4,6.8,3.8-.2,6.9-2.3,6.9-5.1s-3.1-5.1-6.9-5.1C261.5,25.3117,252.9,24.11169,252.9,28.61169Zm-122.1,13.7a1.99675,1.99675,0,0,0-.8,1,7.99993,7.99993,0,0,1-3.6,2.6,6.32391,6.32391,0,0,0-2.3,1.2,2.45061,2.45061,0,0,0,.2,3.6,4.64508,4.64508,0,0,0,3.3.7,21.41433,21.41433,0,0,0,11.9-4.4C143.8,43.51172,133.2,41.01172,130.8,42.3117Zm-11.8,6.4c-1.5-1-3.3-.4-4.8.3a1.57566,1.57566,0,0,0-.7.7c-.2.7.7,1.2,1.4,1.4a5.69886,5.69886,0,0,0,3.4.3C119.4,51.11169,120.5,49.7117,119,48.7117Zm-54.8,89.7c-1.1-3.3-3.6-4.9-7.5-3-2.3,1.1-3.9,3.2-5.3,5.3-2.2,3.4-4.1,7.2-3.6,11.1a10.46816,10.46816,0,0,0,4.4,7.3,6.09911,6.09911,0,0,0,3.4,1.2,6.50728,6.50728,0,0,0,3.7-1.6c2.5-1.9,4.4-4.5,6.3-6.9a9.49138,9.49138,0,0,0,2.2-4.2C68.3,144.11169,65.2,141.41168,64.2,138.41168Zm402,101a4.02964,4.02964,0,0,0-3.1,4.1,41.92509,41.92509,0,0,0-.3,5c0,1.8.2,3.8,1.6,5.1,1.9,1.7,4.9,1.1,7.3.4,1.4-.4,2.9-.8,3.8-1.9a5.70231,5.70231,0,0,0,1.1-2.8c.6-3.3,2.4-8.3.4-10.1C474.8,237.41168,469.7,238.01172,466.2,239.41168Zm-138.9,128.4a6.529,6.529,0,0,0-1.3,1.6,3.442,3.442,0,0,0,1.8,4.6,5.67513,5.67513,0,0,0,2.9.3c8.3-.1,17.2-.4,23.8-5.2.8-.6,1.6-1.4,1.5-2.3-.2-1.2-1.6-1.7-2.8-1.9C344.9,363.41168,333.9,361.61169,327.3,367.8117Zm-157-12.8c-7.2-1-18.6-2.3-18.6,3.5,0,2.2,10.2,4.3,11.8,4.7a133.45833,133.45833,0,0,1,15.1,5c9.4,3.5,17-1.2,9.5-6.5A38.49942,38.49942,0,0,0,170.3,355.01172Z" fill="#2a94f4"/>
    </g>
    <g opacity="0.51">
      <path d="M352.3,282.8117c-2.3-4.4,3-9.1,7.9-10s10.4-.2,14.2-3.3c5.2-4.1,4.9-13,10.6-16.3,4.6-2.6,10.7-.1,15.5-2.2,6-2.6,7.7-11,13.7-13.8,4.7-2.3,10.9.3,13.3,4.9s1.3,10.6-2,14.7c-2.6,3.1-6.5,5.4-8.1,9.1-2.5,5.9,1.5,13-.9,19-4.3,11-24.7,7.7-28.3,19-.8,2.5-.5,5.2-.7,7.9-.6,7.8-6.1,14.6-12.9,18.5s-14.8,5.2-22.6,5.8c-3.2.2-6.6.3-9.4-1.2-2.7-1.4-4.5-3.9-6-6.6-9.4-16.90008-13.3-39.1,15.7-45.50006" fill="#52bc76"/>
    </g>
    <g opacity="0.51">
      <path d="M200,267.51172c3.2-5.2-2.8-11.4-8.7-12.9s-12.6-1.2-17.1-5.3c-5.9-5.5-4.8-16.4-11.5-20.9-5.4-3.6-13-1.1-18.8-4.1-7.2-3.7-8.4-14.2-15.4-18.2-5.6-3.2-13.4-.7-16.8,4.8s-2.6,12.9,1.1,18.2c2.9,4.1,7.4,7.2,9.1,11.9,2.6,7.4-3,15.8-.7,23.3,4.3,13.9,29.6,11.7,32.8,25.9.7,3.2.1,6.4.1,9.7,0,9.6,6.1,18.5,14.1,23.9s17.6,7.8,27.1,9.2c3.9.6,8,1,11.6-.6,3.4-1.4,5.9-4.4,8-7.5,13.1-20.1001,19.9-46.90008-14.9-57.40008" fill="#52bc76"/>
    </g>
    <path d="M409.2,27.11169l-7,2.4-3-8.7a30.961,30.961,0,1,0-58.5,20.3l3,8.7-7,2.4a10.52761,10.52761,0,0,0-6.5,13.4l19.7,56.9a10.621,10.621,0,0,0,13.4,6.6l72.4-25.1a10.68964,10.68964,0,0,0,6.6-13.5l-19.7-56.9A10.37117,10.37117,0,0,0,409.2,27.11169Zm-55.2,9.3a16.93537,16.93537,0,1,1,32-11.1l3,8.7-32,11.1Zm42,51.9,5,14.5a1.294,1.294,0,0,1-.8,1.5l-7,2.4a1.11919,1.11919,0,0,1-1.4-.7l-5-14.5a13.51054,13.51054,0,1,1,9.2-3.2Z" fill="#52bc76"/>
    <g>
      <path d="M334.1,308.8117c7.1-3,13.4-8.7,18.7-14.1,14.2-14.7,23-33.8,27.7-53.6,4.2-17.9,5.1-36.3,4.3-54.6-.1-1.5-2.5-1.6-2.4,0,2,41.1-6.2,91.4-42.9,116.4a42.42585,42.42585,0,0,1-6.5,3.8c-1.49994.59991-.29993,2.69989,1.1,2.09991Z" fill="#52bc76"/>
      <path d="M380.8,234.21173s2.3-13.3,19.9-15.4C400.8,218.8117,394.3,234.51172,380.8,234.21173Z" fill="#52bc76"/>
      <path d="M375.1,253.8117s5.4-12.4,23-10.3C398,243.51172,388.1,257.3117,375.1,253.8117Z" fill="#52bc76"/>
      <path d="M367.6,271.21173s8-10.9,24.7-4.9C392.3,266.3117,379.5,277.51172,367.6,271.21173Z" fill="#52bc76"/>
      <path d="M383.5,213.51172s2.3-13.1,19.6-15.1C403.1,198.41168,396.8,213.91168,383.5,213.51172Z" fill="#52bc76"/>
      <path d="M383.8,190.8117s-9.9-8.9-2.4-24.7C381.4,166.21173,391.1,179.71173,383.8,190.8117Z" fill="#52bc76"/>
      <path d="M383.8,204.3117s-13.1-2.4-15-19.7C368.9,184.51172,384.3,191.01172,383.8,204.3117Z" fill="#52bc76"/>
      <path d="M382.5,224.21173s-13.1-2.4-15-19.7C367.6,204.51172,383,210.91168,382.5,224.21173Z" fill="#52bc76"/>
      <path d="M379.1,242.91168s-12.9-3.3-13.5-20.7C365.6,222.11169,380.5,229.61169,379.1,242.91168Z" fill="#52bc76"/>
      <path d="M373.2,261.51172s-12.9-3.3-13.5-20.7C359.7,240.8117,374.6,248.3117,373.2,261.51172Z" fill="#52bc76"/>
    </g>
    <g>
      <path d="M200.3,303.8117c-7.1-3-13.4-8.7-18.7-14.1-14.2-14.7-23-33.8-27.7-53.6-4.2-17.9-5.1-36.3-4.3-54.6.1-1.5,2.5-1.6,2.4,0-2,41.1,6.2,91.4,42.9,116.4a42.42776,42.42776,0,0,0,6.5,3.8c1.5.59991.3,2.69989-1.1,2.09991Z" fill="#52bc76"/>
      <path d="M153.6,229.21173s-2.3-13.3-19.9-15.4C133.6,213.8117,140.1,229.51172,153.6,229.21173Z" fill="#52bc76"/>
      <path d="M159.4,248.8117s-5.4-12.4-23-10.3C136.4,238.51172,146.3,252.3117,159.4,248.8117Z" fill="#52bc76"/>
      <path d="M166.9,266.21173s-8-10.9-24.7-4.9C142.1,261.3117,154.9,272.51172,166.9,266.21173Z" fill="#52bc76"/>
      <path d="M150.9,208.51172s-2.3-13.1-19.6-15.1C131.3,193.41168,137.6,208.91168,150.9,208.51172Z" fill="#52bc76"/>
      <path d="M150.7,185.8117s9.9-8.9,2.4-24.7C153.1,161.21173,143.3,174.71173,150.7,185.8117Z" fill="#52bc76"/>
      <path d="M150.6,199.3117s13.1-2.4,15-19.7C165.6,179.51172,150.1,186.01172,150.6,199.3117Z" fill="#52bc76"/>
      <path d="M151.9,219.21173s13.1-2.4,15-19.7C166.9,199.51172,151.4,205.91168,151.9,219.21173Z" fill="#52bc76"/>
      <path d="M155.3,237.91168s12.9-3.3,13.5-20.7C168.8,217.11169,153.9,224.61169,155.3,237.91168Z" fill="#52bc76"/>
      <path d="M161.2,256.51172s12.9-3.3,13.5-20.7C174.7,235.8117,159.8,243.3117,161.2,256.51172Z" fill="#52bc76"/>
    </g>
    <g>
      <path d="M326.9,338.61169H213.6a21.10406,21.10406,0,0,1-21.1-21.1v-262.7a21.10406,21.10406,0,0,1,21.1-21.1H326.8a21.104,21.104,0,0,1,21.1,21.1v262.7A21.01874,21.01874,0,0,1,326.9,338.61169Z" fill="#2a94f4"/>
      <path d="M326,327.8117H214.5a14.76656,14.76656,0,0,1-14.8-14.8v-255.6a14.76659,14.76659,0,0,1,14.8-14.8H326a14.76659,14.76659,0,0,1,14.8,14.8v255.6A14.76656,14.76656,0,0,1,326,327.8117Z" fill="#f7f7f7"/>
      <path d="M312.5,42.61169h-9.2a5.12146,5.12146,0,0,0-5.1,5.1v3.6a5.12148,5.12148,0,0,1-5.1,5.1H252.2a5.12145,5.12145,0,0,1-5.1-5.1v-3.6a5.12148,5.12148,0,0,0-5.1-5.1h-26.1v-2.6h96.6v2.6Z" fill="#2a94f4"/>
      <g>
        <circle cx="268.29999" cy="142.41168" r="20.40002" fill="#2a94f4" opacity="0.17" style="isolation: isolate"/>
        <g clip-path="url(#a)">
          <path d="M276.2,137.71173a7.9,7.9,0,1,1-7.9-7.9A7.85318,7.85318,0,0,1,276.2,137.71173Zm4,32.5v-11.3a11.50155,11.50155,0,0,0-11.5-11.5h-.9a11.50155,11.50155,0,0,0-11.5,11.5v11.3a3.15909,3.15909,0,0,0,3.2,3.2H277A3.15913,3.15913,0,0,0,280.2,170.21173Z" fill="#2a94f4"/>
        </g>
      </g>
      <path d="M317.2,186.11169H219.4a8.0663,8.0663,0,0,1-8.1-8.1h0a8.0663,8.0663,0,0,1,8.1-8.1h97.8a8.06629,8.06629,0,0,1,8.1,8.1h0A8.13017,8.13017,0,0,1,317.2,186.11169Z" fill="#2a94f4" opacity="0.17" style="isolation: isolate"/>
      <path d="M313.8,180.11169h-91a2.05062,2.05062,0,0,1-2.1-2.1h0a2.05058,2.05058,0,0,1,2.1-2.1h91a2.05059,2.05059,0,0,1,2.1,2.1h0A2.11219,2.11219,0,0,1,313.8,180.11169Z" fill="#2a94f4"/>
      <path d="M317.3,215.11169H219.5a8.0663,8.0663,0,0,1-8.1-8.1h0a8.06631,8.06631,0,0,1,8.1-8.1h97.8a8.06628,8.06628,0,0,1,8.1,8.1h0A8.13008,8.13008,0,0,1,317.3,215.11169Z" fill="#2a94f4" opacity="0.17" style="isolation: isolate"/>
      <path d="M222,209.3117h0a2.05062,2.05062,0,0,1-2.1-2.1h0a2.05059,2.05059,0,0,1,2.1-2.1h0a2.05062,2.05062,0,0,1,2.1,2.1h0A2.11227,2.11227,0,0,1,222,209.3117Zm8.4-2.1h0a2.05058,2.05058,0,0,0-2.1-2.1h0a2.05062,2.05062,0,0,0-2.1,2.1h0a2.05058,2.05058,0,0,0,2.1,2.1h0A2.11227,2.11227,0,0,0,230.4,207.21173Zm6.2,0h0a2.05059,2.05059,0,0,0-2.1-2.1h0a2.05062,2.05062,0,0,0-2.1,2.1h0a2.05058,2.05058,0,0,0,2.1,2.1h0A2.05062,2.05062,0,0,0,236.6,207.21173Zm6.3,0h0a2.0506,2.0506,0,0,0-2.1-2.1h0a2.05062,2.05062,0,0,0-2.1,2.1h0a2.05058,2.05058,0,0,0,2.1,2.1h0A2.05063,2.05063,0,0,0,242.9,207.21173Zm6.3,0h0a2.05059,2.05059,0,0,0-2.1-2.1h0a2.05059,2.05059,0,0,0-2.1,2.1h0a2.05059,2.05059,0,0,0,2.1,2.1h0A2.05062,2.05062,0,0,0,249.2,207.21173Zm6.3,0h0a2.05059,2.05059,0,0,0-2.1-2.1h0a2.05059,2.05059,0,0,0-2.1,2.1h0a2.05058,2.05058,0,0,0,2.1,2.1h0A2.11227,2.11227,0,0,0,255.5,207.21173Zm6.3,0h0a2.0506,2.0506,0,0,0-2.1-2.1h0a2.05059,2.05059,0,0,0-2.1,2.1h0a2.05058,2.05058,0,0,0,2.1,2.1h0A2.11227,2.11227,0,0,0,261.8,207.21173Z" fill="#2a94f4"/>
    </g>
    <g>
      <path d="M135.2,308.8117s-2.1,11.6-2.6,13.6a9.14437,9.14437,0,0,1-2.8,4,5.07611,5.07611,0,0,0-.9,1.8,1.83839,1.83839,0,0,0,.2,1.6c5.3,8.5,16.4,10.1,16.5,9.4.2-1.3-1.9-3.5-4.3-4.4a7.64325,7.64325,0,0,1-4.8-5.5h0a11.48626,11.48626,0,0,1,.1-6.1l2.6-8.9Z" fill="#b97a59"/>
      <path d="M128.7,310.11169l2.6,11.7a15.60724,15.60724,0,0,1-1.4,10.6h0a3.4059,3.4059,0,0,0,1.8,4.8c6.3,2.2,18.4,6.5,18.9,6,2.8-2.3-4.5-6.2-9.9-10.2-3.6-2.7-5-15.5-5.3-25.2l-5.8,1.5A.94808.94808,0,0,0,128.7,310.11169Z" fill="#b97a59"/>
      <path d="M139.5,336.3117a45.02435,45.02435,0,0,0,8,1.5,1.90962,1.90962,0,0,1,.8.3c2.5,1.9,3.8,3.9,2.3,5.1-.6.5-14.9-4.6-20.4-6.5a2.02252,2.02252,0,0,1-1.1-2.9l1.1-2A44.38274,44.38274,0,0,0,139.5,336.3117Z" fill="#0b4870"/>
      <path d="M131.4,190.3117c-6.6,2.3-10.7,11.3-7.7,19.7,1.7,4.9,10,21.8,18.1,34.9a16.76338,16.76338,0,0,1,.8,16.5,20.29484,20.29484,0,0,0-1.1,2.6c-1.3,4.4-4.7,29.2-6.4,45.7.8,1.9,2.5,4.3,4.2,4.8,5.8-14.9,14.6-41.7,16-46.4a71.94217,71.94217,0,0,0,2.1-8.3c4-8.4-5.4-48.7-8.2-56.6C146.2,194.91168,137.9,188.01172,131.4,190.3117Z" fill="#0b4870"/>
      <ellipse cx="135.5" cy="129.91168" rx="10.60001" ry="13.70001" fill="#0b4870"/>
      <path d="M133,131.3117a14.76348,14.76348,0,0,0-28.6-4.8,5.30193,5.30193,0,0,1-5,3.4,14.06465,14.06465,0,0,0-2.8.3,13.1079,13.1079,0,0,0-4.7,23.7,6.6984,6.6984,0,0,1,2.8,4.9,17.11388,17.11388,0,0,0,18.9,14.6,17.17038,17.17038,0,0,0,10.9-28.5A14.6492,14.6492,0,0,0,133,131.3117Z" fill="#0b4870"/>
      <path d="M135.5,111.7117s6,3.8,5.2,8.8c0,0,3.2-2.3,3.9-10C145.2,105.11169,135.5,111.7117,135.5,111.7117Z" fill="#0b4870"/>
      <path d="M145.2,138.41168a46.01635,46.01635,0,0,0,9.7,3.7,26.83259,26.83259,0,0,0,10.2.3c3.6-.5,7.3-1.5,11.3-2.2a37.8865,37.8865,0,0,1,12.1-.3,1.34085,1.34085,0,0,1,1.1,1.5,1.2783,1.2783,0,0,1-1.2,1.1h0a37.08282,37.08282,0,0,0-10.9,2.2c-3.5,1.2-7.1,2.8-11.1,4a32.34047,32.34047,0,0,1-12.8,1.2,46.5782,46.5782,0,0,1-12.3-3.3,4.55906,4.55906,0,1,1,3.3-8.5c.1,0,.2.1.3.1Z" fill="#b97a59"/>
      <path d="M142.2,168.8117c2.4-7.2,7.2-22.5,6.8-27.4a6.10242,6.10242,0,0,0-6.1-5.6H122a6.40423,6.40423,0,0,0-6.4,6.2c-.2,6,2.6,19.7,4.2,26.9h22.4Z" fill="#52bc76"/>
      <path d="M135.3,310.21173a1.23078,1.23078,0,0,0,.5-1c-.4-15.3-1.4-34.8-1.7-38.5a6.8809,6.8809,0,0,0-.2-1.3c3.3-18.1,3.8-56.9,4.1-63.7.4-8.9-5-19-11.9-19.4-7-.3-14.5,6.9-16.7,15.1-1.5,5.4,4.2,34.2,10.4,55.1a30.82038,30.82038,0,0,1,.8,13.5,38.72737,38.72737,0,0,0-.4,8.8c.3,3.7,4.4,18.6,8.3,31.5a.84852.84852,0,0,0,.8.7A7.4568,7.4568,0,0,0,135.3,310.21173Z" fill="#0b4870"/>
      <path d="M117.5,177.91168a18.85109,18.85109,0,0,0,.9-9.4c-1-7.4-2.9-21.2-2.7-27.1a5.76232,5.76232,0,0,1,5.8-5.6h3.1a7.857,7.857,0,0,0,7.5,4.8,7.75826,7.75826,0,0,0,7.5-4.8h2.9c-3.1,6.7-2,15.6,3.4,20.8-1,3.6-1.9,7.1-2.5,10a18.8266,18.8266,0,0,0,1.1,11.7c2.7,6.4,4.8,16.6,4.1,20.7-21.9,6.2-37-4.8-37-4.8Z" fill="#52bc76"/>
      <polygon points="135.5 137.212 126.1 136.212 129.1 125.912 135.2 126.612 135.5 137.212" fill="#b97a59"/>
      <path d="M135.2,126.61169l-6.1-.8-.9,3.2c1.4,1.5,3.1,4.9,5.3,4.9a3.29255,3.29255,0,0,0,1.9-.6Z" fill="#aa6b4f"/>
      <path d="M135.4,131.61169c-2.1,0-4.3-1-7.4-3.7a9.05331,9.05331,0,0,1-3.1-6.1v-10.1h15.5a27.70953,27.70953,0,0,1,0,10.7C139.6,126.41168,137,131.61169,135.4,131.61169Z" fill="#b97a59"/>
      <path d="M127.5,119.91168c0,2-.9,3.6-2.1,3.6s-2.4-2.6-2.4-4.5a2.30437,2.30437,0,0,1,2.4-2.6C126.6,116.3117,127.5,117.91168,127.5,119.91168Z" fill="#b97a59"/>
      <path d="M123,112.91171a5.76265,5.76265,0,0,1,5.7-5.7h5.2a8.48072,8.48072,0,0,0,4.2-1.1,4.15484,4.15484,0,0,1,5.4,1c1.4,1.8,2,4.3-1.5,6.6-1.7,1.1-4.2-.1-5.9.4h-4.9a2.96843,2.96843,0,0,0-2.9,2.9,1.88012,1.88012,0,0,1-1.9,1.8h-.2l-.7-2.4-2.6,3.5v-7Z" fill="#0b4870"/>
      <path d="M194,138.8117s-2.5,4.9-4.2,4.6-2.9-.7-2.6-3.3a19.655,19.655,0,0,1,3.2-7.7,14.0042,14.0042,0,0,1,5.5-3.9c1.9.1-.9,3.1-2.2,4.7-1.3,1.5-2.6,3.4-1.7,3.8s3.2-2.7,4.4-2.6S194,138.8117,194,138.8117Z" fill="#b97a59"/>
      <path d="M139.3,111.51172c-.5,2.3.2,3.6-7.3,7.2-7.6,3.6-9.9,2.1-12.3,5.9,0,0,1-6.4,5.2-8.6s11.4-3.6,13.7-8.7C138.6,107.3117,139.6,110.01172,139.3,111.51172Z" fill="#0b4870"/>
      <path d="M122,145.21173a8.74438,8.74438,0,0,0-1,.8q-.45.3-.9.6a17.39081,17.39081,0,0,1-1.8,1.1c-1.2.7-2.5,1.3-3.8,1.9a38.39052,38.39052,0,0,1-8.2,2.3,33.73872,33.73872,0,0,1-16.7-2,38.89755,38.89755,0,0,1-7.3-3.8,52.2919,52.2919,0,0,1-6.4-5,68.89548,68.89548,0,0,1-10.2-12.1.98359.98359,0,0,1,.3-1.4.94812.94812,0,0,1,1.3.2h0a82.66284,82.66284,0,0,0,11.1,10.3,41.83021,41.83021,0,0,0,12.9,6.7,33.28435,33.28435,0,0,0,6.9,1.2,32.084,32.084,0,0,0,6.9-.5,29.875,29.875,0,0,0,6.6-2.1c1-.5,2.1-1,3.1-1.6.5-.3,1-.6,1.4-.9.2-.2.5-.3.7-.5l.6-.4.2-.2a3.45147,3.45147,0,1,1,4.3,5.4Z" fill="#b97a59"/>
      <path d="M137.8,112.01172s.3,7.8,7.1,11.5c0,0-3-5.9-2.8-9.7C142.3,109.91171,137.4,109.3117,137.8,112.01172Z" fill="#0b4870"/>
      <path d="M127.2,333.01172a1.5293,1.5293,0,0,1-.4-1.8c.3-.5,1-1.8,1.5-2.8a.65566.65566,0,0,1,1.1-.1c3.4,4.5,8.1,7.5,13.4,7.1,1.9.8,3.5,3.1,3.3,4.2,0,.2-2.3.8-5-.1C129.3,335.61169,127.2,333.01172,127.2,333.01172Z" fill="#0b4870"/>
      <path d="M67.7,124.41168s3.3,4.4,2.3,5.9-2,2.3-4.1.9a18.94092,18.94092,0,0,1-5.6-6.4,14.63325,14.63325,0,0,1-1.1-6.7c1-1.7,2.5,2.2,3.3,4.1s1.9,3.9,2.7,3.2c.8-.6-1.1-4.1-.4-5.1C65.5,119.21173,67.7,124.41168,67.7,124.41168Z" fill="#b97a59"/>
    </g>
    <path d="M509.5,367.8117H15.5a15.4496,15.4496,0,0,1-15.5-15.5H0a15.44961,15.44961,0,0,1,15.5-15.5h494a15.44963,15.44963,0,0,1,15.5,15.5h0A15.44962,15.44962,0,0,1,509.5,367.8117Z" fill="#d3d3d3"/>
    <path d="M122.8,71.7117l-6.5-7.1-79.6,72.8a21.29577,21.29577,0,1,0,8.4,10.3,25.57848,25.57848,0,0,0-1.1-2.4l60.3-56.3,7.2,7.1,7.2-7.3-5.7-5.7,2.2-2.6,5.9,5.3,5-5.7-6.2-5.7Zm-92.6,96.5a13.86381,13.86381,0,1,1,8-17.9A13.85886,13.85886,0,0,1,30.2,168.21173Z" fill="#52bc76"/>
  </g>
</svg>
