<svg xmlns="http://www.w3.org/2000/svg" width="525" height="374.367"><defs><clipPath id="a"><circle cx="268.3" cy="142.412" r="20.4" fill="none"/></clipPath></defs><path d="M467.2 141.912c6.6 12.1 16.3 23.5 17.1 37.1 1.3 21.9-20 38.3-28.7 58.6-10.7 24.9-1.7 54.2-11.2 79.5-6.9 18.3-23.7 33-43.5 37.8-14.8 3.6-30.4 2-45.7 2.1-43.4.4-86.7 15.4-129.6 8.6-21.2-3.4-41.2-12-62.4-14.7-25.5-3.3-55.2.7-73.4-16.6-25.5-24.2-6.6-68.7-25.7-97.7-6.2-9.4-16.1-16.7-19.4-27.2-3.9-12.4 2.4-25.5 10.2-36.1 7.8-10.5 17.5-20.2 21.7-32.5 3.8-11.1 1.5-23.2-3.2-34-7.2-16.6 12.9-54.6 52.9-51.7 18.3 1.3 26.6-19.9 46.7-25.8 23-6.7 51.9-1.3 68.8 4.3 17.2 5.7 38.5 8.7 48.4-5.9 13.9-20.7 55.5-23.9 74.2 9.7 6.8 12.2 12.9 21.8 27.4 20.8 78.6-5.1 65.5 65.8 75.4 83.7zm-214.3-113.3c0 2.8 0 7.6 12.4 6.8 3.8-.2 6.9-2.3 6.9-5.1s-3.1-5.1-6.9-5.1c-3.8.1-12.4-1.1-12.4 3.4zm-122.1 13.7a1.997 1.997 0 00-.8 1 8 8 0 01-3.6 2.6 6.324 6.324 0 00-2.3 1.2 2.45 2.45 0 00.2 3.6 4.645 4.645 0 003.3.7 21.414 21.414 0 0011.9-4.4c4.3-3.5-6.3-6-8.7-4.7zm-11.8 6.4c-1.5-1-3.3-.4-4.8.3a1.576 1.576 0 00-.7.7c-.2.7.7 1.2 1.4 1.4a5.699 5.699 0 003.4.3c1.1-.3 2.2-1.7.7-2.7zm-54.8 89.7c-1.1-3.3-3.6-4.9-7.5-3-2.3 1.1-3.9 3.2-5.3 5.3-2.2 3.4-4.1 7.2-3.6 11.1a10.468 10.468 0 004.4 7.3 6.1 6.1 0 003.4 1.2 6.507 6.507 0 003.7-1.6c2.5-1.9 4.4-4.5 6.3-6.9a9.491 9.491 0 002.2-4.2c.5-3.5-2.6-6.2-3.6-9.2zm402 101a4.03 4.03 0 00-3.1 4.1 41.925 41.925 0 00-.3 5c0 1.8.2 3.8 1.6 5.1 1.9 1.7 4.9 1.1 7.3.4 1.4-.4 2.9-.8 3.8-1.9a5.702 5.702 0 001.1-2.8c.6-3.3 2.4-8.3.4-10.1-2.2-1.8-7.3-1.2-10.8.2zm-138.9 128.4a6.529 6.529 0 00-1.3 1.6 3.442 3.442 0 001.8 4.6 5.675 5.675 0 002.9.3c8.3-.1 17.2-.4 23.8-5.2.8-.6 1.6-1.4 1.5-2.3-.2-1.2-1.6-1.7-2.8-1.9-8.3-1.5-19.3-3.3-25.9 2.9zm-157-12.8c-7.2-1-18.6-2.3-18.6 3.5 0 2.2 10.2 4.3 11.8 4.7a133.458 133.458 0 0115.1 5c9.4 3.5 17-1.2 9.5-6.5a38.5 38.5 0 00-17.8-6.7z" fill="#2a94f4" opacity=".07"/><path d="M352.3 282.812c-2.3-4.4 3-9.1 7.9-10s10.4-.2 14.2-3.3c5.2-4.1 4.9-13 10.6-16.3 4.6-2.6 10.7-.1 15.5-2.2 6-2.6 7.7-11 13.7-13.8 4.7-2.3 10.9.3 13.3 4.9s1.3 10.6-2 14.7c-2.6 3.1-6.5 5.4-8.1 9.1-2.5 5.9 1.5 13-.9 19-4.3 11-24.7 7.7-28.3 19-.8 2.5-.5 5.2-.7 7.9-.6 7.8-6.1 14.6-12.9 18.5s-14.8 5.2-22.6 5.8c-3.2.2-6.6.3-9.4-1.2-2.7-1.4-4.5-3.9-6-6.6-9.4-16.9-13.3-39.1 15.7-45.5m-152.3-15.3c3.2-5.2-2.8-11.4-8.7-12.9s-12.6-1.2-17.1-5.3c-5.9-5.5-4.8-16.4-11.5-20.9-5.4-3.6-13-1.1-18.8-4.1-7.2-3.7-8.4-14.2-15.4-18.2-5.6-3.2-13.4-.7-16.8 4.8s-2.6 12.9 1.1 18.2c2.9 4.1 7.4 7.2 9.1 11.9 2.6 7.4-3 15.8-.7 23.3 4.3 13.9 29.6 11.7 32.8 25.9.7 3.2.1 6.4.1 9.7 0 9.6 6.1 18.5 14.1 23.9s17.6 7.8 27.1 9.2c3.9.6 8 1 11.6-.6 3.4-1.4 5.9-4.4 8-7.5 13.1-20.1 19.9-46.9-14.9-57.4" fill="#52bc76" opacity=".51"/><path d="M409.2 27.112l-7 2.4-3-8.7a30.961 30.961 0 10-58.5 20.3l3 8.7-7 2.4a10.528 10.528 0 00-6.5 13.4l19.7 56.9a10.621 10.621 0 0013.4 6.6l72.4-25.1a10.69 10.69 0 006.6-13.5l-19.7-56.9a10.371 10.371 0 00-13.4-6.5zm-55.2 9.3a16.935 16.935 0 1132-11.1l3 8.7-32 11.1zm42 51.9l5 14.5a1.294 1.294 0 01-.8 1.5l-7 2.4a1.12 1.12 0 01-1.4-.7l-5-14.5a13.51 13.51 0 119.2-3.2z" fill="#52bc76"/><g fill="#52bc76"><path d="M334.1 308.812c7.1-3 13.4-8.7 18.7-14.1 14.2-14.7 23-33.8 27.7-53.6 4.2-17.9 5.1-36.3 4.3-54.6-.1-1.5-2.5-1.6-2.4 0 2 41.1-6.2 91.4-42.9 116.4a42.426 42.426 0 01-6.5 3.8c-1.5.6-.3 2.7 1.1 2.1z"/><path d="M380.8 234.212s2.3-13.3 19.9-15.4c.1 0-6.4 15.7-19.9 15.4zm-5.7 19.6s5.4-12.4 23-10.3c-.1 0-10 13.8-23 10.3zm-7.5 17.4s8-10.9 24.7-4.9c0 0-12.8 11.2-24.7 4.9zm15.9-57.7s2.3-13.1 19.6-15.1c0 0-6.3 15.5-19.6 15.1zm.3-22.7s-9.9-8.9-2.4-24.7c0 .1 9.7 13.6 2.4 24.7zm0 13.5s-13.1-2.4-15-19.7c.1-.1 15.5 6.4 15 19.7zm-1.3 19.9s-13.1-2.4-15-19.7c.1 0 15.5 6.4 15 19.7zm-3.4 18.7s-12.9-3.3-13.5-20.7c0-.1 14.9 7.4 13.5 20.7zm-5.9 18.6s-12.9-3.3-13.5-20.7c0 0 14.9 7.5 13.5 20.7z"/></g><g fill="#52bc76"><path d="M200.3 303.812c-7.1-3-13.4-8.7-18.7-14.1-14.2-14.7-23-33.8-27.7-53.6-4.2-17.9-5.1-36.3-4.3-54.6.1-1.5 2.5-1.6 2.4 0-2 41.1 6.2 91.4 42.9 116.4a42.428 42.428 0 006.5 3.8c1.5.6.3 2.7-1.1 2.1z"/><path d="M153.6 229.212s-2.3-13.3-19.9-15.4c-.1 0 6.4 15.7 19.9 15.4zm5.8 19.6s-5.4-12.4-23-10.3c0 0 9.9 13.8 23 10.3zm7.5 17.4s-8-10.9-24.7-4.9c-.1 0 12.7 11.2 24.7 4.9zm-16-57.7s-2.3-13.1-19.6-15.1c0 0 6.3 15.5 19.6 15.1zm-.2-22.7s9.9-8.9 2.4-24.7c0 .1-9.8 13.6-2.4 24.7zm-.1 13.5s13.1-2.4 15-19.7c0-.1-15.5 6.4-15 19.7zm1.3 19.9s13.1-2.4 15-19.7c0 0-15.5 6.4-15 19.7zm3.4 18.7s12.9-3.3 13.5-20.7c0-.1-14.9 7.4-13.5 20.7zm5.9 18.6s12.9-3.3 13.5-20.7c0 0-14.9 7.5-13.5 20.7z"/></g><path d="M326.9 338.612H213.6a21.104 21.104 0 01-21.1-21.1v-262.7a21.104 21.104 0 0121.1-21.1h113.2a21.104 21.104 0 0121.1 21.1v262.7a21.019 21.019 0 01-21 21.1z" fill="#2a94f4"/><path d="M326 327.812H214.5a14.767 14.767 0 01-14.8-14.8v-255.6a14.767 14.767 0 0114.8-14.8H326a14.767 14.767 0 0114.8 14.8v255.6a14.767 14.767 0 01-14.8 14.8z" fill="#f7f7f7"/><path d="M312.5 42.612h-9.2a5.121 5.121 0 00-5.1 5.1v3.6a5.121 5.121 0 01-5.1 5.1h-40.9a5.121 5.121 0 01-5.1-5.1v-3.6a5.121 5.121 0 00-5.1-5.1h-26.1v-2.6h96.6v2.6z" fill="#2a94f4"/><circle cx="268.3" cy="142.412" r="20.4" fill="#2a94f4" opacity=".17" style="isolation:isolate"/><g clip-path="url(#a)"><path d="M276.2 137.712a7.9 7.9 0 11-7.9-7.9 7.853 7.853 0 017.9 7.9zm4 32.5v-11.3a11.502 11.502 0 00-11.5-11.5h-.9a11.502 11.502 0 00-11.5 11.5v11.3a3.16 3.16 0 003.2 3.2H277a3.16 3.16 0 003.2-3.2z" fill="#2a94f4"/></g><path d="M317.2 186.112h-97.8a8.066 8.066 0 01-8.1-8.1 8.066 8.066 0 018.1-8.1h97.8a8.066 8.066 0 018.1 8.1 8.13 8.13 0 01-8.1 8.1z" fill="#2a94f4" opacity=".17" style="isolation:isolate"/><path d="M313.8 180.112h-91a2.05 2.05 0 01-2.1-2.1 2.05 2.05 0 012.1-2.1h91a2.05 2.05 0 012.1 2.1 2.112 2.112 0 01-2.1 2.1z" fill="#2a94f4"/><path d="M317.3 215.112h-97.8a8.066 8.066 0 01-8.1-8.1 8.066 8.066 0 018.1-8.1h97.8a8.066 8.066 0 018.1 8.1 8.13 8.13 0 01-8.1 8.1z" fill="#2a94f4" opacity=".17" style="isolation:isolate"/><path d="M222 209.312a2.05 2.05 0 01-2.1-2.1 2.05 2.05 0 012.1-2.1 2.05 2.05 0 012.1 2.1 2.112 2.112 0 01-2.1 2.1zm8.4-2.1a2.05 2.05 0 00-2.1-2.1 2.05 2.05 0 00-2.1 2.1 2.05 2.05 0 002.1 2.1 2.112 2.112 0 002.1-2.1zm6.2 0a2.05 2.05 0 00-2.1-2.1 2.05 2.05 0 00-2.1 2.1 2.05 2.05 0 002.1 2.1 2.05 2.05 0 002.1-2.1zm6.3 0a2.05 2.05 0 00-2.1-2.1 2.05 2.05 0 00-2.1 2.1 2.05 2.05 0 002.1 2.1 2.05 2.05 0 002.1-2.1zm6.3 0a2.05 2.05 0 00-2.1-2.1 2.05 2.05 0 00-2.1 2.1 2.05 2.05 0 002.1 2.1 2.05 2.05 0 002.1-2.1zm6.3 0a2.05 2.05 0 00-2.1-2.1 2.05 2.05 0 00-2.1 2.1 2.05 2.05 0 002.1 2.1 2.112 2.112 0 002.1-2.1zm6.3 0a2.05 2.05 0 00-2.1-2.1 2.05 2.05 0 00-2.1 2.1 2.05 2.05 0 002.1 2.1 2.112 2.112 0 002.1-2.1z" fill="#2a94f4"/><path d="M135.2 308.812s-2.1 11.6-2.6 13.6a9.144 9.144 0 01-2.8 4 5.076 5.076 0 00-.9 1.8 1.838 1.838 0 00.2 1.6c5.3 8.5 16.4 10.1 16.5 9.4.2-1.3-1.9-3.5-4.3-4.4a7.643 7.643 0 01-4.8-5.5 11.486 11.486 0 01.1-6.1l2.6-8.9z" fill="#b97a59"/><path d="M128.7 310.112l2.6 11.7a15.607 15.607 0 01-1.4 10.6 3.406 3.406 0 001.8 4.8c6.3 2.2 18.4 6.5 18.9 6 2.8-2.3-4.5-6.2-9.9-10.2-3.6-2.7-5-15.5-5.3-25.2l-5.8 1.5a.948.948 0 00-.9.8z" fill="#b97a59"/><path d="M139.5 336.312a45.024 45.024 0 008 1.5 1.91 1.91 0 01.8.3c2.5 1.9 3.8 3.9 2.3 5.1-.6.5-14.9-4.6-20.4-6.5a2.023 2.023 0 01-1.1-2.9l1.1-2a44.383 44.383 0 009.3 4.5zm-8.1-146c-6.6 2.3-10.7 11.3-7.7 19.7 1.7 4.9 10 21.8 18.1 34.9a16.763 16.763 0 01.8 16.5 20.295 20.295 0 00-1.1 2.6c-1.3 4.4-4.7 29.2-6.4 45.7.8 1.9 2.5 4.3 4.2 4.8 5.8-14.9 14.6-41.7 16-46.4a71.942 71.942 0 002.1-8.3c4-8.4-5.4-48.7-8.2-56.6-3-8.3-11.3-15.2-17.8-12.9z" fill="#0b4870"/><ellipse cx="135.5" cy="129.912" rx="10.6" ry="13.7" fill="#0b4870"/><path d="M133 131.312a14.763 14.763 0 00-28.6-4.8 5.302 5.302 0 01-5 3.4 14.065 14.065 0 00-2.8.3 13.108 13.108 0 00-4.7 23.7 6.698 6.698 0 012.8 4.9 17.114 17.114 0 0018.9 14.6 17.17 17.17 0 0010.9-28.5 14.65 14.65 0 008.5-13.6zm2.5-19.6s6 3.8 5.2 8.8c0 0 3.2-2.3 3.9-10 .6-5.4-9.1 1.2-9.1 1.2z" fill="#0b4870"/><path d="M145.2 138.412a46.016 46.016 0 009.7 3.7 26.833 26.833 0 0010.2.3c3.6-.5 7.3-1.5 11.3-2.2a37.886 37.886 0 0112.1-.3 1.34 1.34 0 011.1 1.5 1.278 1.278 0 01-1.2 1.1 37.083 37.083 0 00-10.9 2.2c-3.5 1.2-7.1 2.8-11.1 4a32.34 32.34 0 01-12.8 1.2 46.578 46.578 0 01-12.3-3.3 4.56 4.56 0 113.3-8.5c.1 0 .2.1.3.1z" fill="#b97a59"/><path d="M142.2 168.812c2.4-7.2 7.2-22.5 6.8-27.4a6.102 6.102 0 00-6.1-5.6H122a6.404 6.404 0 00-6.4 6.2c-.2 6 2.6 19.7 4.2 26.9h22.4z" fill="#52bc76"/><path d="M135.3 310.212a1.23 1.23 0 00.5-1c-.4-15.3-1.4-34.8-1.7-38.5a6.88 6.88 0 00-.2-1.3c3.3-18.1 3.8-56.9 4.1-63.7.4-8.9-5-19-11.9-19.4-7-.3-14.5 6.9-16.7 15.1-1.5 5.4 4.2 34.2 10.4 55.1a30.82 30.82 0 01.8 13.5 38.727 38.727 0 00-.4 8.8c.3 3.7 4.4 18.6 8.3 31.5a.849.849 0 00.8.7 7.457 7.457 0 006-.8z" fill="#0b4870"/><path d="M117.5 177.912a18.851 18.851 0 00.9-9.4c-1-7.4-2.9-21.2-2.7-27.1a5.762 5.762 0 015.8-5.6h3.1a7.857 7.857 0 007.5 4.8 7.758 7.758 0 007.5-4.8h2.9c-3.1 6.7-2 15.6 3.4 20.8-1 3.6-1.9 7.1-2.5 10a18.827 18.827 0 001.1 11.7c2.7 6.4 4.8 16.6 4.1 20.7-21.9 6.2-37-4.8-37-4.8z" fill="#52bc76"/><path fill="#b97a59" d="M135.5 137.212l-9.4-1 3-10.3 6.1.7.3 10.6z"/><path d="M135.2 126.612l-6.1-.8-.9 3.2c1.4 1.5 3.1 4.9 5.3 4.9a3.293 3.293 0 001.9-.6z" fill="#aa6b4f"/><path d="M135.4 131.612c-2.1 0-4.3-1-7.4-3.7a9.053 9.053 0 01-3.1-6.1v-10.1h15.5a27.71 27.71 0 010 10.7c-.8 4-3.4 9.2-5 9.2z" fill="#b97a59"/><path d="M127.5 119.912c0 2-.9 3.6-2.1 3.6s-2.4-2.6-2.4-4.5a2.304 2.304 0 012.4-2.6c1.2-.1 2.1 1.5 2.1 3.5z" fill="#b97a59"/><path d="M123 112.912a5.763 5.763 0 015.7-5.7h5.2a8.48 8.48 0 004.2-1.1 4.155 4.155 0 015.4 1c1.4 1.8 2 4.3-1.5 6.6-1.7 1.1-4.2-.1-5.9.4h-4.9a2.968 2.968 0 00-2.9 2.9 1.88 1.88 0 01-1.9 1.8h-.2l-.7-2.4-2.6 3.5v-7z" fill="#0b4870"/><path d="M194 138.812s-2.5 4.9-4.2 4.6-2.9-.7-2.6-3.3a19.655 19.655 0 013.2-7.7 14.004 14.004 0 015.5-3.9c1.9.1-.9 3.1-2.2 4.7-1.3 1.5-2.6 3.4-1.7 3.8s3.2-2.7 4.4-2.6-2.4 4.4-2.4 4.4z" fill="#b97a59"/><path d="M139.3 111.512c-.5 2.3.2 3.6-7.3 7.2-7.6 3.6-9.9 2.1-12.3 5.9 0 0 1-6.4 5.2-8.6s11.4-3.6 13.7-8.7c0 0 1 2.7.7 4.2z" fill="#0b4870"/><path d="M122 145.212a8.744 8.744 0 00-1 .8l-.9.6a17.39 17.39 0 01-1.8 1.1c-1.2.7-2.5 1.3-3.8 1.9a38.39 38.39 0 01-8.2 2.3 33.739 33.739 0 01-16.7-2 38.898 38.898 0 01-7.3-3.8 52.292 52.292 0 01-6.4-5 68.895 68.895 0 01-10.2-12.1.984.984 0 01.3-1.4.948.948 0 011.3.2 82.663 82.663 0 0011.1 10.3 41.83 41.83 0 0012.9 6.7 33.284 33.284 0 006.9 1.2 32.084 32.084 0 006.9-.5 29.875 29.875 0 006.6-2.1c1-.5 2.1-1 3.1-1.6.5-.3 1-.6 1.4-.9.2-.2.5-.3.7-.5l.6-.4.2-.2a3.451 3.451 0 114.3 5.4z" fill="#b97a59"/><path d="M137.8 112.012s.3 7.8 7.1 11.5c0 0-3-5.9-2.8-9.7.2-3.9-4.7-4.5-4.3-1.8zm-10.6 221a1.53 1.53 0 01-.4-1.8c.3-.5 1-1.8 1.5-2.8a.656.656 0 011.1-.1c3.4 4.5 8.1 7.5 13.4 7.1 1.9.8 3.5 3.1 3.3 4.2 0 .2-2.3.8-5-.1-11.8-3.9-13.9-6.5-13.9-6.5z" fill="#0b4870"/><path d="M67.7 124.412s3.3 4.4 2.3 5.9-2 2.3-4.1.9a18.94 18.94 0 01-5.6-6.4 14.633 14.633 0 01-1.1-6.7c1-1.7 2.5 2.2 3.3 4.1s1.9 3.9 2.7 3.2c.8-.6-1.1-4.1-.4-5.1.7-1.1 2.9 4.1 2.9 4.1z" fill="#b97a59"/><path d="M509.5 367.812h-494a15.45 15.45 0 01-15.5-15.5 15.45 15.45 0 0115.5-15.5h494a15.45 15.45 0 0115.5 15.5 15.45 15.45 0 01-15.5 15.5z" fill="#d3d3d3"/><path d="M122.8 71.712l-6.5-7.1-79.6 72.8a21.296 21.296 0 108.4 10.3 25.578 25.578 0 00-1.1-2.4l60.3-56.3 7.2 7.1 7.2-7.3-5.7-5.7 2.2-2.6 5.9 5.3 5-5.7-6.2-5.7zm-92.6 96.5a13.864 13.864 0 118-17.9 13.859 13.859 0 01-8 17.9z" fill="#52bc76"/></svg>